<?xml version="1.0" encoding="UTF-8"?>
<svg version="1.1" xmlns="http://www.w3.org/2000/svg" width="500" height="500">
<path d="M0 0 C36.12145209 -0.58918303 78.93039754 0.48667308 106.93481445 26.71484375 C111.55210098 31.2856977 114.98206319 36.27297956 118 42 C118.35835938 42.64066406 118.71671875 43.28132813 119.0859375 43.94140625 C122.40195319 50.98413683 122.27466987 60.38504138 120.23828125 67.7578125 C119.29468096 69.95830329 118.24611946 71.95774866 117 74 C116.4225 75.010625 115.845 76.02125 115.25 77.0625 C103.29980971 92.66413732 85.62555128 100.10151251 67.1875 105.25 C66.36016357 105.48404541 65.53282715 105.71809082 64.68041992 105.95922852 C48.758111 110.1726697 32.25853022 111.60340855 15.91079712 113.13430786 C-3.79273197 114.98767567 -23.42831123 117.03720038 -43 120 C-43.99773437 120.14759766 -44.99546875 120.29519531 -46.0234375 120.44726562 C-85.64636915 126.4117255 -131.53806019 137.81459458 -157.875 170.5625 C-164.1708371 179.19635427 -168.43096177 187.92457348 -172 198 C-172.66 198 -173.32 198 -174 198 C-178.54476356 181.74452207 -174.13868559 163.7541618 -166.28198242 149.36230469 C-162.82643223 143.37321333 -158.56166925 138.18170196 -154 133 C-153.21625 131.96875 -152.4325 130.9375 -151.625 129.875 C-140.28893236 117.45930687 -124.74275875 107.87028491 -110 100 C-109.12432373 99.52530273 -109.12432373 99.52530273 -108.23095703 99.04101562 C-75.84103797 81.61320651 -40.01507734 72.33065872 -4.51171875 63.671875 C23.87373737 56.75070891 23.87373737 56.75070891 50.9375 45.875 C51.58299805 45.56232178 52.22849609 45.24964355 52.89355469 44.92749023 C56.96814414 42.83503015 60.01556189 40.47270097 63 37 C64.24838381 33.59471004 64.24838381 33.59471004 64 30 C57.30615726 17.66582488 39.62385936 12.88440201 26.93066406 9.08007812 C13.5727381 5.10936967 13.5727381 5.10936967 0 2 C0 1.34 0 0.68 0 0 Z " fill="#A85405" transform="translate(280,169)"/>
<path d="M0 0 C4.04821953 4.04821953 3.30864304 10.35023309 3.31469727 15.78491211 C2.97478378 32.61766938 -3.99469425 48.40937881 -15 61 C-16.03447266 62.21429688 -16.03447266 62.21429688 -17.08984375 63.453125 C-55.59319326 107.57295607 -118.03630285 122.43530398 -172.69546509 135.48223877 C-201.74835672 142.00180167 -201.74835672 142.00180167 -228.28515625 154.93359375 C-230 156 -230 156 -232 156 C-232 156.66 -232 157.32 -232 158 C-232.474375 158.391875 -232.94875 158.78375 -233.4375 159.1875 C-235.84254096 161.97734752 -235.87529113 164.38344267 -236 168 C-231.26166931 177.98933323 -217.80930197 182.47948365 -208 186 C-195.86550075 190.09712957 -183.50001356 193.24740634 -171 196 C-171.33 196.66 -171.66 197.32 -172 198 C-207.90416231 198.9158027 -251.69622096 197.21062696 -279.5625 171.0625 C-288.40656343 161.37707655 -294.23579203 150.2587675 -294 137 C-292.65875584 125.84400445 -286.26433063 117.56868187 -278 110.3125 C-250.803602 89.31417613 -213.44691041 87.00909412 -180.53125 83.91796875 C-89.74551015 76.29033503 -89.74551015 76.29033503 -15.12890625 28.79296875 C-8.48384706 20.07513881 -3.88833095 10.20686875 0 0 Z " fill="#F1B605" transform="translate(392,18)"/>
<path d="M0 0 C3.196875 -0.0825 6.39375 -0.165 9.6875 -0.25 C10.68612061 -0.28641602 11.68474121 -0.32283203 12.71362305 -0.36035156 C16.98285395 -0.41369006 19.36670269 -0.38848656 23.08203125 1.890625 C26.09273533 5.20178631 26.26693831 7.48771672 26.234375 11.95703125 C25.90610915 14.81841526 24.70690869 16.72412174 23 19 C23.66 19.99 24.32 20.98 25 22 C25.70381157 23.98723268 26.3711811 25.98777953 27 28 C27.33 28.99 27.66 29.98 28 31 C27.01 31.99 26.02 32.98 25 34 C22.6875 33.5625 22.6875 33.5625 20 32 C18.61648158 29.04381025 17.86078761 26.17132277 17 23 C13.37 22.67 9.74 22.34 6 22 C6 25.63 6 29.26 6 33 C4.02 33 2.04 33 0 33 C0 22.11 0 11.22 0 0 Z M6 6 C6 9.3 6 12.6 6 16 C7.79093191 16.08086147 9.58289628 16.13912702 11.375 16.1875 C12.37273437 16.22230469 13.37046875 16.25710938 14.3984375 16.29296875 C15.68621094 16.14794922 15.68621094 16.14794922 17 16 C19.14915785 12.77626323 19.38286803 11.73296326 19 8 C17.16262173 5.72783152 17.16262173 5.72783152 14.3984375 5.8046875 C13.40070313 5.82789063 12.40296875 5.85109375 11.375 5.875 C10.37210937 5.89304687 9.36921875 5.91109375 8.3359375 5.9296875 C7.17964844 5.96449219 7.17964844 5.96449219 6 6 Z " fill="#A85405" transform="translate(284,330)"/>
<path d="M0 0 C2.125 0.9375 2.125 0.9375 4 2 C3.55212676 6.64973854 1.97814403 8.37027468 -1.5625 11.3125 C-2.38878906 12.00988281 -3.21507812 12.70726562 -4.06640625 13.42578125 C-4.70449219 13.94527344 -5.34257812 14.46476562 -6 15 C-5.08638422 16.39783214 -4.16894254 17.79316393 -3.25 19.1875 C-2.70730469 20.01121094 -2.16460937 20.83492188 -1.60546875 21.68359375 C0.03730825 24.1518562 0.03730825 24.1518562 2.4375 26.75 C4 29 4 29 3.75 31.8125 C3.5025 32.534375 3.255 33.25625 3 34 C0.80078125 34.375 0.80078125 34.375 -2 34 C-3.86451757 32.00801938 -5.30292791 30.23044928 -6.8125 28 C-7.21919922 27.42765625 -7.62589844 26.8553125 -8.04492188 26.265625 C-9.04474232 24.85411379 -10.02438622 23.42834959 -11 22 C-13.04094701 22.6679589 -13.04094701 22.6679589 -15 24 C-15.66287032 26.15383405 -15.66287032 26.15383405 -15.6875 28.5625 C-15.93220339 32.93220339 -15.93220339 32.93220339 -17 34 C-19.5 34.125 -19.5 34.125 -22 34 C-23.87903248 32.12096752 -23.13053475 28.9119394 -23.1328125 26.41015625 C-23.13376923 25.7504332 -23.13472595 25.09071014 -23.13571167 24.41099548 C-23.13639336 23.01300969 -23.13453986 21.61502076 -23.13037109 20.21704102 C-23.12503106 18.07496018 -23.13031199 15.93308983 -23.13671875 13.79101562 C-23.1360578 12.43489537 -23.13477629 11.07877524 -23.1328125 9.72265625 C-23.13168457 8.48265869 -23.13055664 7.24266113 -23.12939453 5.96508789 C-23 3 -23 3 -22 1 C-20.33388095 0.957279 -18.66617115 0.95936168 -17 1 C-15.18884044 2.81115956 -15.61800552 5.61278227 -15.4375 8.0625 C-15.35371094 9.16722656 -15.26992187 10.27195312 -15.18359375 11.41015625 C-15.12300781 12.26480469 -15.06242188 13.11945313 -15 14 C-13.62714844 12.60974609 -13.62714844 12.60974609 -12.2265625 11.19140625 C-11.0261739 9.98163961 -9.82564583 8.77201135 -8.625 7.5625 C-8.02171875 6.95083984 -7.4184375 6.33917969 -6.796875 5.70898438 C-6.21679688 5.12568359 -5.63671875 4.54238281 -5.0390625 3.94140625 C-4.50490723 3.40201416 -3.97075195 2.86262207 -3.42041016 2.30688477 C-2 1 -2 1 0 0 Z " fill="#A85405" transform="translate(213,329)"/>
<path d="M0 0 C1.9661624 0.97441205 3.88099001 1.99432317 5.77734375 3.09765625 C5.77734375 4.74765625 5.77734375 6.39765625 5.77734375 8.09765625 C4.02734375 8.72265625 4.02734375 8.72265625 1.77734375 9.09765625 C1.17921875 8.78828125 0.58109375 8.47890625 -0.03515625 8.16015625 C-3.11662759 6.6634416 -5.84830147 6.96787337 -9.22265625 7.09765625 C-9.55265625 8.41765625 -9.88265625 9.73765625 -10.22265625 11.09765625 C-9.330625 11.32839844 -8.43859375 11.55914062 -7.51953125 11.796875 C-6.3490625 12.12300781 -5.17859375 12.44914062 -3.97265625 12.78515625 C-2.8125 13.09839844 -1.65234375 13.41164063 -0.45703125 13.734375 C3.24514551 15.29483356 4.66456911 16.71824245 6.77734375 20.09765625 C7.37588254 24.2874278 7.27490048 26.2980115 5.02734375 29.91015625 C1.71041701 33.13494613 -0.96665489 34.38578256 -5.59765625 34.41015625 C-10.78878565 34.29897885 -14.51644501 32.80386749 -18.22265625 29.09765625 C-17.84765625 26.47265625 -17.84765625 26.47265625 -17.22265625 24.09765625 C-14.1345401 24.67667803 -11.12624824 25.39566065 -8.09765625 26.22265625 C-4.33667093 27.42311633 -4.33667093 27.42311633 -1.22265625 26.09765625 C-1.22265625 24.77765625 -1.22265625 23.45765625 -1.22265625 22.09765625 C-2.0425 21.8553125 -2.86234375 21.61296875 -3.70703125 21.36328125 C-5.32351562 20.86054688 -5.32351562 20.86054688 -6.97265625 20.34765625 C-8.57367188 19.86039062 -8.57367188 19.86039062 -10.20703125 19.36328125 C-13.40072261 18.02292374 -15.043754 16.76132598 -17.22265625 14.09765625 C-18.42321908 10.41593025 -18.38894655 8.59652714 -17.16015625 4.91015625 C-13.11417399 -0.9630438 -6.65137733 -2.70029554 0 0 Z " fill="#A85405" transform="translate(239.22265625,329.90234375)"/>
<path d="M0 0 C1.2065625 0.0309375 1.2065625 0.0309375 2.4375 0.0625 C5.39488361 5.85737328 8.12484823 11.70797919 10.6875 17.6875 C11.05101562 18.50734375 11.41453125 19.3271875 11.7890625 20.171875 C13.69986867 24.64000071 14.91917459 28.10125168 14.4375 33.0625 C12.4575 33.5575 12.4575 33.5575 10.4375 34.0625 C6.4375 28.3125 6.4375 28.3125 6.4375 26.0625 C2.03405607 26.07506332 -2.23707656 26.19521967 -6.5625 27.0625 C-8.74079065 29.91502534 -8.74079065 29.91502534 -9.5625 33.0625 C-11.75 33.9375 -11.75 33.9375 -13.5625 34.0625 C-14.7121582 32.48120117 -14.7121582 32.48120117 -15.5625 30.0625 C-14.70385742 26.9621582 -14.70385742 26.9621582 -13.16796875 23.36328125 C-12.90115799 22.72762741 -12.63434723 22.09197357 -12.35945129 21.4370575 C-11.50406447 19.40988869 -10.62714249 17.39283616 -9.75 15.375 C-9.16985158 14.00513769 -8.59105902 12.63470032 -8.01367188 11.26367188 C-3.27026359 0.07976253 -3.27026359 0.07976253 0 0 Z M-0.5625 11.0625 C-2.92160353 15.3262281 -2.92160353 15.3262281 -3.5625 20.0625 C-1.2525 20.0625 1.0575 20.0625 3.4375 20.0625 C2.4475 17.0925 1.4575 14.1225 0.4375 11.0625 C0.1075 11.0625 -0.2225 11.0625 -0.5625 11.0625 Z " fill="#A85405" transform="translate(329.5625,329.9375)"/>
<path d="M0 0 C1.98 0 3.96 0 6 0 C7.74444217 3.88869203 9.47109244 7.78465983 11.18188477 11.68823242 C11.76595402 13.01424937 12.35477945 14.33818219 12.94848633 15.65991211 C13.80256963 17.56352274 14.63909677 19.47404797 15.47265625 21.38671875 C15.98062744 22.53358154 16.48859863 23.68044434 17.01196289 24.86206055 C18.04573152 28.14524025 18.02108332 29.76170719 17 33 C15.02 33.495 15.02 33.495 13 34 C10 29.375 10 29.375 10 26 C5.38 26 0.76 26 -4 26 C-4.66 28.31 -5.32 30.62 -6 33 C-8.475 33.495 -8.475 33.495 -11 34 C-12.48936609 29.30752968 -11.3713446 26.61129096 -9.47265625 22.16796875 C-9.20488876 21.53135818 -8.93712128 20.89474762 -8.66123962 20.23884583 C-7.80720504 18.21628604 -6.9352254 16.20205516 -6.0625 14.1875 C-5.47861468 12.81366171 -4.89591871 11.43931729 -4.31445312 10.06445312 C-2.89003166 6.70366304 -1.44941851 3.35009796 0 0 Z M2 12 C0.515 15.96 0.515 15.96 -1 20 C1.64 20 4.28 20 7 20 C6.01 17.36 5.02 14.72 4 12 C3.34 12 2.68 12 2 12 Z " fill="#A85405" transform="translate(261,330)"/>
<path d="M0 0 C1.65 0 3.3 0 5 0 C8.61607346 6.87451327 11.90583258 13.85079797 14.9375 21 C15.255979 21.72952881 15.57445801 22.45905762 15.90258789 23.21069336 C17.4557887 26.94262352 18.25600444 29.14421002 17 33 C15.02 33.495 15.02 33.495 13 34 C10.125 29.25 10.125 29.25 9 27 C4.71 27 0.42 27 -4 27 C-4.4125 27.969375 -4.825 28.93875 -5.25 29.9375 C-7 33 -7 33 -9.125 33.9375 C-9.74375 33.958125 -10.3625 33.97875 -11 34 C-11.33 33.67 -11.66 33.34 -12 33 C-11.68787074 26.02586194 -8.73008285 20.02356728 -6 13.6875 C-5.5359375 12.59115234 -5.071875 11.49480469 -4.59375 10.36523438 C-1.28647959 2.57295918 -1.28647959 2.57295918 0 0 Z M2 11 C1.01 13.97 0.02 16.94 -1 20 C1.31 20 3.62 20 6 20 C5.01 17.03 4.02 14.06 3 11 C2.67 11 2.34 11 2 11 Z " fill="#A85405" transform="translate(168,330)"/>
<path d="M0 0 C2.31 0 4.62 0 7 0 C7.33 0.99 7.66 1.98 8 3 C7.01 3.495 7.01 3.495 6 4 C6.66 4.66 7.32 5.32 8 6 C7.625 8.125 7.625 8.125 7 10 C4.6875 10.625 4.6875 10.625 2 11 C1.01 10.34 0.02 9.68 -1 9 C-0.7215625 8.1028125 -0.7215625 8.1028125 -0.4375 7.1875 C0.22093687 4.83591238 0.22093687 4.83591238 -1 2 C-0.67 1.34 -0.34 0.68 0 0 Z " fill="#F1B605" transform="translate(221,377)"/>
<path d="M0 0 C1.4540625 0.0309375 1.4540625 0.0309375 2.9375 0.0625 C3.88774979 3.75791586 3.88774979 6.36708414 2.9375 10.0625 C-1.4768167 11.37486443 -1.4768167 11.37486443 -3.9375 10.0625 C-5.69754746 6.93352675 -4.81669157 4.45636206 -4.0625 1.0625 C-3.0625 0.0625 -3.0625 0.0625 0 0 Z M-2.0625 6.0625 C-1.7325 6.7225 -1.4025 7.3825 -1.0625 8.0625 C-0.4025 7.7325 0.2575 7.4025 0.9375 7.0625 C-0.0525 6.7325 -1.0425 6.4025 -2.0625 6.0625 Z " fill="#F1B605" transform="translate(250.0625,376.9375)"/>
<path d="M0 0 C1.32 0.33 2.64 0.66 4 1 C6.68149993 0.61432869 6.68149993 0.61432869 9 0 C8.62875 0.721875 8.2575 1.44375 7.875 2.1875 C6.81025859 5.60988311 7.39660152 6.88228073 9 10 C7.68 10 6.36 10 5 10 C4.67 9.34 4.34 8.68 4 8 C3.67 8.66 3.34 9.32 3 10 C2.01 10 1.02 10 0 10 C0 6.7 0 3.4 0 0 Z " fill="#F1B605" transform="translate(271,377)"/>
<path d="M0 0 C1.32 0 2.64 0 4 0 C7 6.625 7 6.625 7 10 C6.0925 9.814375 5.185 9.62875 4.25 9.4375 C0.8491925 8.77576292 0.8491925 8.77576292 -3 10 C-2.01 6.7 -1.02 3.4 0 0 Z " fill="#F1B605" transform="translate(235,377)"/>
<path d="M0 0 C1.65 0.33 3.3 0.66 5 1 C5.66 3.97 6.32 6.94 7 10 C6.01 10 5.02 10 4 10 C4 9.34 4 8.68 4 8 C3.01 8 2.02 8 1 8 C1 8.66 1 9.32 1 10 C-0.32 10 -1.64 10 -3 10 C-2.01 6.7 -1.02 3.4 0 0 Z " fill="#F1B605" transform="translate(260,377)"/>
</svg>
